<svg xmlns="http://www.w3.org/2000/svg" viewBox="0 0 800 500" role="img" aria-label="GPS emergency locator beacon">
  <defs>
    <linearGradient id="bg" x1="0" y1="0" x2="1" y2="1">
      <stop offset="0%" stop-color="#dbeafe"/>
      <stop offset="100%" stop-color="#bfdbfe"/>
    </linearGradient>
    <linearGradient id="device" x1="0" y1="0" x2="0" y2="1">
      <stop offset="0%" stop-color="#1e3a8a"/>
      <stop offset="100%" stop-color="#1d4ed8"/>
    </linearGradient>
  </defs>

  <rect width="800" height="500" fill="url(#bg)"/>
  <circle cx="670" cy="90" r="38" fill="#fde68a"/>

  <rect x="285" y="110" width="230" height="320" rx="30" fill="url(#device)"/>
  <rect x="335" y="145" width="130" height="70" rx="12" fill="#0f172a"/>
  <circle cx="400" cy="180" r="18" fill="#22c55e"/>

  <rect x="330" y="245" width="140" height="30" rx="8" fill="#93c5fd"/>
  <rect x="330" y="290" width="140" height="20" rx="8" fill="#60a5fa"/>
  <rect x="330" y="325" width="95" height="20" rx="8" fill="#60a5fa"/>

  <line x1="400" y1="110" x2="400" y2="65" stroke="#1e3a8a" stroke-width="8" stroke-linecap="round"/>
  <circle cx="400" cy="58" r="10" fill="#ef4444"/>

  <circle cx="400" cy="430" r="46" fill="#ef4444"/>
  <circle cx="400" cy="430" r="24" fill="#fee2e2"/>

  <path d="M180 170c35-35 92-35 127 0" fill="none" stroke="#1d4ed8" stroke-width="10" stroke-linecap="round"/>
  <path d="M150 130c52-52 136-52 188 0" fill="none" stroke="#3b82f6" stroke-width="10" stroke-linecap="round"/>
  <path d="M620 170c35-35 92-35 127 0" fill="none" stroke="#1d4ed8" stroke-width="10" stroke-linecap="round"/>
  <path d="M590 130c52-52 136-52 188 0" fill="none" stroke="#3b82f6" stroke-width="10" stroke-linecap="round"/>

  <text x="400" y="475" text-anchor="middle" font-family="Arial, sans-serif" font-size="26" font-weight="700" fill="#1e293b">GPS Emergency Locator Beacon</text>
</svg>
